<svg width="60" height="60" viewBox="0 0 60 60" fill="none" xmlns="http://www.w3.org/2000/svg">
<path d="M30.2537 15C33.1924 15 35.9104 15.5714 38.4077 16.7143C40.9051 17.8571 42.8793 19.4111 44.3305 21.3763C45.7818 23.3415 46.5074 25.4851 46.5074 27.807C46.5074 30.129 45.7818 32.2756 44.3305 34.2468C42.8793 36.2181 40.9081 37.7751 38.4168 38.918C35.9255 40.0608 33.2045 40.6322 30.2537 40.6322C29.3225 40.6322 28.3611 40.5657 27.3694 40.4327C23.0641 43.4198 20.7724 44.9315 20.4942 44.9678C20.3612 45.0161 20.2342 45.0101 20.1133 44.9496C20.0649 44.9133 20.0286 44.865 20.0044 44.8045C19.9802 44.744 19.9682 44.6896 19.9682 44.6412V44.5687C20.0407 44.097 20.591 42.1318 21.6189 38.6731C19.2849 37.5121 17.4315 35.9732 16.0589 34.0564C14.6863 32.1395 14 30.0564 14 27.807C14 25.4851 14.7256 23.3415 16.1768 21.3763C17.6281 19.4111 19.6023 17.8571 22.0996 16.7143C24.5969 15.5714 27.315 15 30.2537 15ZM22.018 31.1993V25.6302H23.4511C23.6446 25.6302 23.8471 25.5607 24.0588 25.4216C24.2704 25.2825 24.3762 25.092 24.3762 24.8502C24.3762 24.6083 24.2795 24.4057 24.086 24.2425C23.8925 24.0792 23.705 23.9976 23.5236 23.9976H18.8072C18.6016 23.9976 18.4081 24.058 18.2267 24.179C18.0453 24.2999 17.9546 24.4995 17.9546 24.7776C17.9546 25.0558 18.0513 25.2674 18.2448 25.4125C18.4383 25.5576 18.656 25.6302 18.8979 25.6302H20.331V31.1993C20.331 31.5016 20.4035 31.7495 20.5486 31.943C20.6938 32.1365 20.8994 32.2333 21.1654 32.2333C21.4315 32.2333 21.6401 32.1244 21.7912 31.9067C21.9424 31.6891 22.018 31.4532 22.018 31.1993ZM29.8727 32.2333C30.3202 32.064 30.4593 31.6346 30.29 30.9453C30.2416 30.7881 29.9 29.8478 29.265 28.1245C28.6301 26.4012 28.2643 25.4186 28.1676 25.1767C27.841 24.3906 27.3936 23.9976 26.8252 23.9976C26.2084 23.9976 25.7307 24.3906 25.3921 25.1767C25.2953 25.3823 24.9265 26.383 24.2855 28.1789C23.6446 29.9748 23.312 30.8969 23.2878 30.9453C23.2032 31.0542 23.182 31.2537 23.2243 31.5439C23.2667 31.8342 23.3967 32.0337 23.6143 32.1426C23.8562 32.2514 24.092 32.2635 24.3218 32.1789C24.5516 32.0942 24.7088 31.9672 24.7935 31.7979L25.2288 30.6006H28.3852C28.5183 31.036 28.615 31.3202 28.6755 31.4532C28.736 31.5742 28.8025 31.6951 28.875 31.816C28.9476 31.937 29.0806 32.0549 29.2741 32.1698C29.4676 32.2847 29.6672 32.3058 29.8727 32.2333ZM34.7525 32.2333C35.0064 32.2333 35.2392 32.1547 35.4509 31.9974C35.6625 31.8402 35.7683 31.6286 35.7683 31.3625C35.7683 31.0965 35.6716 30.8879 35.4781 30.7367C35.2846 30.5855 35.0427 30.5099 34.7525 30.5099H32.7389V25.0316C32.7389 24.7776 32.6633 24.5418 32.5122 24.3241C32.361 24.1064 32.1524 23.9976 31.8863 23.9976C31.6203 23.9976 31.4147 24.0943 31.2695 24.2878C31.1244 24.4813 31.0519 24.7292 31.0519 25.0316V31.1993C31.0519 31.5016 31.1244 31.7495 31.2695 31.943C31.4147 32.1365 31.6203 32.2333 31.8863 32.2333C31.8984 32.2333 31.9196 32.2302 31.9498 32.2242C31.98 32.2182 32.0012 32.2151 32.0133 32.2151C32.0254 32.2151 32.0466 32.2182 32.0768 32.2242C32.107 32.2302 32.1282 32.2333 32.1403 32.2333H34.7525ZM41.8997 32.1063C42.1053 31.9128 42.2081 31.6921 42.2081 31.4442C42.2081 31.1963 42.1295 30.9755 41.9723 30.782C41.8997 30.6732 41.1379 29.6513 39.6866 27.7163C40.3881 27.0028 41.0955 26.2893 41.809 25.5758C41.9904 25.3944 42.1023 25.1797 42.1446 24.9318C42.187 24.6839 42.1174 24.4511 41.936 24.2334C41.7304 24.0399 41.5097 23.9613 41.2739 23.9976C41.0381 24.0339 40.8174 24.1548 40.6118 24.3604C40.5755 24.3967 40.4183 24.5569 40.1401 24.8411C39.862 25.1253 39.5022 25.4911 39.0608 25.9386C38.6194 26.3861 38.2294 26.7851 37.8907 27.1358V25.0316C37.8907 24.7776 37.8152 24.5418 37.664 24.3241C37.5128 24.1064 37.3042 23.9976 37.0382 23.9976C36.7721 23.9976 36.5665 24.0943 36.4214 24.2878C36.2763 24.4813 36.2037 24.7292 36.2037 25.0316V31.1993C36.2037 31.5016 36.2763 31.7495 36.4214 31.943C36.5665 32.1365 36.7721 32.2333 37.0382 32.2333C37.3042 32.2333 37.5128 32.1244 37.664 31.9067C37.8152 31.6891 37.8907 31.4532 37.8907 31.1993V29.5485C37.9391 29.5001 38.0298 29.4064 38.1628 29.2673C38.2959 29.1283 38.4047 29.0164 38.4894 28.9317C39.2875 30.0202 40.0011 30.9816 40.6299 31.816C40.7992 32.0458 40.9958 32.194 41.2195 32.2605C41.4432 32.327 41.67 32.2756 41.8997 32.1063ZM25.7186 28.968L26.8252 25.7209L27.9136 28.968H25.7186Z" fill="#3B1F1E"/>
<circle cx="30" cy="30" r="29.5" stroke="#F9CF00"/>
</svg>
