<svg width="126" height="42" viewBox="0 0 126 42" fill="none" xmlns="http://www.w3.org/2000/svg">
<path d="M5.79625 26.68H20.1563V31.44H0.95625V1.68H5.79625V26.68ZM31.7169 27.04C32.7302 27.04 33.6635 26.7733 34.5169 26.24C35.3969 25.7067 36.0902 24.9733 36.5969 24.04C37.1035 23.08 37.3569 22.0267 37.3569 20.88C37.3569 19.7333 37.0902 18.6933 36.5569 17.76C36.0502 16.8267 35.3702 16.0933 34.5169 15.56C33.6635 15.0267 32.7302 14.76 31.7169 14.76C30.7035 14.76 29.7702 15.0267 28.9169 15.56C28.0635 16.0933 27.3702 16.8267 26.8369 17.76C26.3302 18.6933 26.0769 19.7333 26.0769 20.88C26.0769 22.0267 26.3302 23.08 26.8369 24.04C27.3435 24.9733 28.0235 25.7067 28.8769 26.24C29.7569 26.7733 30.7035 27.04 31.7169 27.04ZM21.6769 20.88C21.6769 18.9867 22.1169 17.2267 22.9969 15.6C23.9035 13.9467 25.1169 12.64 26.6369 11.68C28.1835 10.6933 29.8769 10.2 31.7169 10.2C33.5569 10.2 35.2502 10.6933 36.7969 11.68C38.3435 12.64 39.5569 13.9467 40.4369 15.6C41.3169 17.2267 41.7569 18.9867 41.7569 20.88C41.7569 22.7733 41.3169 24.5467 40.4369 26.2C39.5569 27.8267 38.3435 29.1333 36.7969 30.12C35.2502 31.08 33.5569 31.56 31.7169 31.56C29.8769 31.56 28.1835 31.08 26.6369 30.12C25.1169 29.1333 23.9035 27.8267 22.9969 26.2C22.1169 24.5467 21.6769 22.7733 21.6769 20.88ZM55.28 26.92C56.2667 26.92 57.1867 26.6533 58.04 26.12C58.8933 25.5867 59.5733 24.8533 60.08 23.92C60.5867 22.9867 60.84 21.96 60.84 20.84C60.84 19.7467 60.5867 18.7467 60.08 17.84C59.5733 16.9333 58.8933 16.2133 58.04 15.68C57.1867 15.1467 56.2667 14.88 55.28 14.88C54.2933 14.88 53.3733 15.1467 52.52 15.68C51.6933 16.2133 51.0267 16.9333 50.52 17.84C50.0133 18.7467 49.76 19.7467 49.76 20.84C49.76 21.96 50.0133 22.9867 50.52 23.92C51.0267 24.8533 51.6933 25.5867 52.52 26.12C53.3733 26.6533 54.2933 26.92 55.28 26.92ZM44.88 20.88C44.88 18.9067 45.32 17.12 46.2 15.52C47.1067 13.8933 48.32 12.6133 49.84 11.68C51.3867 10.7467 53.08 10.28 54.92 10.28C56.0133 10.28 57.1467 10.5333 58.32 11.04C59.4933 11.52 60.4533 12.3467 61.2 13.52V10.16H66V30.2C66 32.4933 65.4667 34.4667 64.4 36.12C63.36 37.8 61.9733 39.0667 60.24 39.92C58.5333 40.8 56.68 41.24 54.68 41.24C52.8133 41.24 51.04 40.8133 49.36 39.96C47.7067 39.1067 46.3867 37.9467 45.4 36.48L49.44 33.76C50.08 34.7467 50.8933 35.4667 51.88 35.92C52.8667 36.3733 53.8 36.6 54.68 36.6C55.5867 36.6 56.5333 36.3867 57.52 35.96C58.5333 35.56 59.4 34.92 60.12 34.04C60.84 33.16 61.2 32.08 61.2 30.8V28.16C60.3467 29.36 59.3467 30.2267 58.2 30.76C57.0533 31.2933 55.96 31.56 54.92 31.56C53.08 31.56 51.3867 31.0933 49.84 30.16C48.32 29.2267 47.1067 27.9467 46.2 26.32C45.32 24.6933 44.88 22.88 44.88 20.88ZM90.2241 13.88V18.68H71.1841V13.88H90.2241ZM100.567 0.119999V5H95.6866V0.119999H100.567ZM95.8066 10.16H100.487V31.52H95.8066V10.16ZM120.833 20C120.833 18.48 120.406 17.2667 119.553 16.36C118.726 15.4533 117.473 15 115.793 15C114.353 15 113.139 15.48 112.153 16.44C111.166 17.4 110.686 18.5867 110.713 20V31.4H105.952V10.32H110.713V13.28C111.246 12.2933 112.033 11.56 113.073 11.08C114.139 10.5733 115.206 10.32 116.273 10.32C117.953 10.32 119.499 10.6533 120.913 11.32C122.326 11.9867 123.459 13 124.313 14.36C125.166 15.6933 125.593 17.3333 125.593 19.28V31.4H120.833V20Z" fill="#F24860"/>
</svg>
