<svg width="40" height="40" viewBox="0 0 40 40" fill="none" xmlns="http://www.w3.org/2000/svg">
<path fill-rule="evenodd" clip-rule="evenodd" d="M30.1647 27.0687C32.7626 23.7195 33.9869 19.5063 33.5887 15.2864C33.1904 11.0664 31.1995 7.15671 28.0209 4.35261C24.8422 1.5485 20.7148 0.060659 16.4781 0.191759C12.2414 0.32286 8.21384 2.06306 5.2147 5.05833C2.21294 8.05567 0.46705 12.0848 0.332817 16.3247C0.198584 20.5646 1.68611 24.6961 4.49226 27.8773C7.29841 31.0586 11.212 33.0501 15.4355 33.446C19.659 33.842 23.8745 32.6126 27.223 30.0083L27.3126 30.1021L36.1501 38.9417C36.3437 39.1352 36.5735 39.2888 36.8264 39.3935C37.0793 39.4983 37.3503 39.5522 37.6241 39.5522C37.8978 39.5522 38.1689 39.4983 38.4218 39.3935C38.6747 39.2888 38.9045 39.1352 39.098 38.9417C39.2916 38.7481 39.4451 38.5183 39.5499 38.2654C39.6546 38.0125 39.7086 37.7414 39.7086 37.4677C39.7086 37.194 39.6546 36.9229 39.5499 36.67C39.4451 36.4171 39.2916 36.1873 39.098 35.9937L30.2584 27.1562C30.228 27.1262 30.1967 27.097 30.1647 27.0687ZM25.8397 8.00624C27.0159 9.16349 27.9514 10.5422 28.5922 12.0628C29.233 13.5834 29.5663 15.2158 29.573 16.8659C29.5798 18.5159 29.2597 20.151 28.6313 21.6768C28.003 23.2026 27.0788 24.5888 25.912 25.7556C24.7452 26.9224 23.3589 27.8466 21.8332 28.475C20.3074 29.1033 18.6723 29.4234 17.0222 29.4167C15.3722 29.4099 13.7397 29.0766 12.2191 28.4358C10.6985 27.7951 9.31986 26.8596 8.16261 25.6833C5.84994 23.3327 4.55981 20.1634 4.57324 16.8659C4.58667 13.5683 5.90257 10.4097 8.2343 8.07793C10.566 5.7462 13.7247 4.4303 17.0222 4.41687C20.3198 4.40344 23.489 5.69357 25.8397 8.00624Z" fill="#F24860"/>
</svg>
