<svg width="40" height="40" viewBox="0 0 37 37" fill="none" xmlns="http://www.w3.org/2000/svg">
<path d="M29.2547 0.916857L4.1901 11.333C3.24107 11.7265 2.42466 12.3836 1.8375 13.2267C1.25034 14.0697 0.917037 15.0633 0.87704 16.0899C0.837043 17.1165 1.09203 18.1331 1.61181 19.0192C2.1316 19.9054 2.89441 20.6241 3.80995 21.0902L11.9072 25.2845L16.0508 33.4324C16.5136 34.3568 17.2331 35.1282 18.1231 35.6541C19.0131 36.18 20.0358 36.4381 21.0688 36.3976C22.399 36.3475 23.6632 35.8056 24.6169 34.877C25.1167 34.3765 25.5129 33.7822 25.7827 33.1283L36.2622 8.00034C36.6672 7.0186 36.7724 5.93891 36.5644 4.89746C36.3565 3.85602 35.8448 2.89949 35.0938 2.14855C34.3429 1.3976 33.3864 0.885887 32.3449 0.677958C31.3035 0.470032 30.2238 0.575207 29.2421 0.980216L29.2547 0.916857ZM22.488 31.6837C22.3567 31.9995 22.1378 32.271 21.8571 32.4664C21.5765 32.6617 21.2458 32.7727 20.9041 32.7862C20.5769 32.7936 20.254 32.7113 19.9703 32.5483C19.6866 32.3852 19.453 32.1476 19.2948 31.8611L15.4299 24.2961L32.8281 6.8979L22.488 31.6837ZM12.8956 21.7618L5.34323 17.9856C5.05681 17.8274 4.81918 17.5938 4.65611 17.3101C4.49304 17.0264 4.41076 16.7035 4.41819 16.3763C4.41235 16.132 4.45654 15.889 4.54807 15.6624C4.63959 15.4357 4.77651 15.2302 4.95041 15.0585C5.12059 14.8889 5.32313 14.7554 5.54598 14.6657L30.2938 4.36356L12.8956 21.7618Z" fill="current"/>
</svg>
