<svg width="40" height="40" viewBox="0 0 30 39" fill="none" xmlns="http://www.w3.org/2000/svg">
<path d="M29.4145 29.58L26.8638 27V17C26.8638 10.86 23.6211 5.72 17.9662 4.36V3C17.9662 1.34 16.6415 0 15.0003 0C13.3592 0 12.0345 1.34 12.0345 3V4.36C6.35977 5.72 3.13686 10.84 3.13686 17V27L0.586209 29.58C-0.659457 30.84 0.210532 33 1.97028 33H28.0106C29.7901 33 30.6601 30.84 29.4145 29.58ZM22.9093 29H7.09135V17C7.09135 12.04 10.077 8 15.0003 8C19.9237 8 22.9093 12.04 22.9093 17V29ZM15.0003 39C17.1753 39 18.9548 37.2 18.9548 35H11.0458C11.0458 36.0609 11.4625 37.0783 12.2041 37.8284C12.9457 38.5786 13.9515 39 15.0003 39Z" fill="current"/>
</svg>
