<svg width="40" height="40" viewBox="0 0 46 47" fill="none" xmlns="http://www.w3.org/2000/svg">
<path fill-rule="evenodd" clip-rule="evenodd" d="M31.2502 17.1175C31.2502 19.3277 30.3722 21.4473 28.8094 23.0101C27.2466 24.5729 25.127 25.4508 22.9168 25.4508C20.7067 25.4508 18.5871 24.5729 17.0243 23.0101C15.4615 21.4473 14.5835 19.3277 14.5835 17.1175C14.5835 14.9074 15.4615 12.7878 17.0243 11.225C18.5871 9.66215 20.7067 8.78418 22.9168 8.78418C25.127 8.78418 27.2466 9.66215 28.8094 11.225C30.3722 12.7878 31.2502 14.9074 31.2502 17.1175ZM27.0835 17.1175C27.0835 18.2226 26.6445 19.2824 25.8631 20.0638C25.0817 20.8452 24.0219 21.2842 22.9168 21.2842C21.8118 21.2842 20.752 20.8452 19.9706 20.0638C19.1892 19.2824 18.7502 18.2226 18.7502 17.1175C18.7502 16.0124 19.1892 14.9526 19.9706 14.1712C20.752 13.3898 21.8118 12.9508 22.9168 12.9508C24.0219 12.9508 25.0817 13.3898 25.8631 14.1712C26.6445 14.9526 27.0835 16.0124 27.0835 17.1175Z" fill="current"/>
<path fill-rule="evenodd" clip-rule="evenodd" d="M22.9167 0.450928C10.2604 0.450928 0 10.7113 0 23.3676C0 36.0238 10.2604 46.2843 22.9167 46.2843C35.5729 46.2843 45.8333 36.0238 45.8333 23.3676C45.8333 10.7113 35.5729 0.450928 22.9167 0.450928ZM4.16667 23.3676C4.16667 27.7218 5.65208 31.7301 8.14167 34.9134C9.89006 32.6174 12.1456 30.7566 14.7322 29.4766C17.3187 28.1965 20.1661 27.5318 23.0521 27.5343C25.9007 27.5316 28.7123 28.1791 31.2728 29.4276C33.8332 30.676 36.0749 32.4924 37.8271 34.7384C39.6322 32.3709 40.8476 29.6076 41.3727 26.6772C41.8978 23.7467 41.7176 20.7333 40.8469 17.8863C39.9762 15.0393 38.44 12.4406 36.3656 10.3052C34.2912 8.16973 31.738 6.55897 28.9175 5.60615C26.0969 4.65334 23.09 4.38587 20.1455 4.82587C17.2011 5.26587 14.4037 6.4007 11.9849 8.13646C9.56614 9.87221 7.59544 12.159 6.23589 14.8076C4.87635 17.4562 4.16704 20.3904 4.16667 23.3676V23.3676ZM22.9167 42.1176C18.6124 42.1241 14.4381 40.6433 11.1 37.9259C12.4436 36.0025 14.232 34.432 16.3129 33.3482C18.3938 32.2644 20.7058 31.6993 23.0521 31.7009C25.3691 31.6991 27.6531 32.25 29.7144 33.3081C31.7758 34.3661 33.5549 35.9006 34.9042 37.7843C31.5402 40.5899 27.297 42.1237 22.9167 42.1176V42.1176Z" fill="current"/>
</svg>
